<svg width="961" height="634" viewBox="0 0 961 634" fill="none" xmlns="http://www.w3.org/2000/svg">
<path d="M186.055 273.73C203.285 273.523 220.512 274.781 237.531 277.512C263.793 281.504 290.472 281.504 316.738 277.723C340.898 273.941 363.797 266.172 386.277 256.934C402.664 250.215 413.379 237.824 420.523 222.496C429.558 202.965 437.75 183.226 445.734 163.277C453.09 145.219 458.762 126.531 468.637 109.73C482.082 85.9999 501.41 66.0507 524.73 51.7733C541.961 41.4843 558.765 30.7733 575.996 20.2733C588.39 12.7148 602.258 8.51554 616.332 5.57413C650.789 -1.56649 684.824 -1.56649 719.07 8.09366C759.41 19.4335 798.695 34.1327 836.726 52.1913C864.879 65.6327 888.617 85.371 910.68 107.211C922.863 118.969 933.578 132.199 942.402 146.687C952.277 163.066 958.371 181.547 959.633 200.656C961.101 221.234 961.73 241.605 955.64 261.555C943.875 300.402 921.812 331.691 885.047 350.168C871.18 357.309 855.844 362.137 840.715 366.547C807.312 376.418 775.797 391.535 747.222 411.484C725.582 426.394 707.726 445.504 690.289 465.242C671.379 486.871 653.101 508.922 633.14 529.5C604.359 559.109 572.844 585.777 536.496 605.727C515.699 617.066 494.269 626.516 470.945 630.504C430.398 637.434 392.793 630.504 360.015 604.469C341.527 589.977 323.879 574.648 305.812 559.949C289.633 546.508 273.457 533.281 254.34 524.039C232.906 513.121 208.957 508.082 185.008 509.133C166.937 510.18 148.871 512.07 131.012 513.543C111.051 515.012 91.0936 515.012 71.3436 510.601C36.2576 503.043 15.2498 480.781 5.37481 447.184C-3.44941 416.316 0.960752 386.285 12.5154 357.098C18.1912 342.82 26.1717 329.59 36.0467 318.039C49.7029 302.289 67.3514 293.262 86.8904 286.961C108.531 280.031 130.801 277.301 153.281 275.832L186.055 273.73Z" fill="#A87345"/>
</svg>